<svg fill="none" height="24" viewBox="0 0 24 24" width="24" xmlns="http://www.w3.org/2000/svg"><path clip-rule="evenodd" d="m11 4c.2761 0 .5.22386.5.5v4.5h1v-2c0-.27614.2239-.5.5-.5s.5.22386.5.5v2c.8284 0 1.5.67157 1.5 1.5v1h2.5c.0283 0 .056.0023.083.0068.2039-.5861.7613-1.0068 1.417-1.0068.8284 0 1.5.6716 1.5 1.5s-.6716 1.5-1.5 1.5c-.6557 0-1.2131-.4207-1.417-1.0068-.027.0045-.0547.0068-.083.0068h-2.5v1c0 .8284-.6716 1.5-1.5 1.5v4.5c0 .2761-.2239.5-.5.5s-.5-.2239-.5-.5v-4.5h-1v2c0 .2761-.2239.5-.5.5s-.5-.2239-.5-.5v-2c-.82843 0-1.5-.6716-1.5-1.5v-1h-2.5c-.02826 0-.05597-.0023-.08295-.0068-.20397.5861-.76138 1.0068-1.41705 1.0068-.82843 0-1.5-.6716-1.5-1.5s.67157-1.5 1.5-1.5c.65567 0 1.21308.4207 1.41705 1.0068.02698-.0045.05469-.0068.08295-.0068h2.5v-1c0-.82843.67157-1.5 1.5-1.5v-4.5c0-.27614.2239-.5.5-.5zm2.5 10c.2761 0 .5-.2239.5-.5v-3c0-.2761-.2239-.5-.5-.5h-3c-.2761 0-.5.2239-.5.5v3c0 .2761.2239.5.5.5zm-8.5-2.5c-.27614 0-.5.2239-.5.5s.22386.5.5.5.5-.2239.5-.5-.22386-.5-.5-.5zm13.5.5c0-.2761.2239-.5.5-.5s.5.2239.5.5-.2239.5-.5.5-.5-.2239-.5-.5z" fill="#47495f" fill-rule="evenodd"/></svg>